<svg xmlns="http://www.w3.org/2000/svg" xmlns:xlink="http://www.w3.org/1999/xlink" width="46" zoomAndPan="magnify" viewBox="0 0 34.5 34.5" height="46" preserveAspectRatio="xMidYMid meet" version="1.0"><defs><filter x="0%" y="0%" width="100%" height="100%" id="4bf7ce4780"><feColorMatrix values="0 0 0 0 1 0 0 0 0 1 0 0 0 0 1 0 0 0 1 0" color-interpolation-filters="sRGB"/></filter><clipPath id="2fd1a3ddab"><path d="M 5.609375 4.863281 L 29.835938 4.863281 L 29.835938 26.089844 L 5.609375 26.089844 Z M 5.609375 4.863281 " clip-rule="nonzero"/></clipPath><clipPath id="28668debd5"><path d="M 5.609375 11.128906 C 5.609375 17.867188 17.710938 26.089844 17.710938 26.089844 C 17.710938 26.089844 29.757812 17.8125 29.808594 11.128906 C 29.808594 7.675781 26.996094 4.863281 23.546875 4.863281 C 20.894531 4.863281 18.609375 6.5625 17.710938 8.894531 C 16.808594 6.5625 14.527344 4.863281 11.875 4.863281 C 8.421875 4.863281 5.609375 7.675781 5.609375 11.128906 " clip-rule="nonzero"/></clipPath><mask id="ca66e2edbc"><g filter="url(#4bf7ce4780)"><rect x="-3.45" width="41.4" fill="#000000" y="-3.45" height="41.4" fill-opacity="0.82"/></g></mask><clipPath id="2899fec9ba"><path d="M 0.0820312 1.199219 L 19.359375 1.199219 L 19.359375 18.089844 L 0.0820312 18.089844 Z M 0.0820312 1.199219 " clip-rule="nonzero"/></clipPath><clipPath id="b753dceb12"><path d="M 0.0820312 6.183594 C 0.0820312 11.546875 9.710938 18.089844 9.710938 18.089844 C 9.710938 18.089844 19.296875 11.5 19.339844 6.183594 C 19.339844 3.4375 17.101562 1.199219 14.355469 1.199219 C 12.246094 1.199219 10.425781 2.550781 9.710938 4.40625 C 8.992188 2.550781 7.175781 1.199219 5.066406 1.199219 C 2.320312 1.199219 0.0820312 3.4375 0.0820312 6.183594 " clip-rule="nonzero"/></clipPath><clipPath id="1b01c166c3"><rect x="0" width="20" y="0" height="19"/></clipPath><clipPath id="f00e272199"><path d="M 4.246094 11.535156 L 20.363281 11.535156 L 20.363281 29 L 4.246094 29 Z M 4.246094 11.535156 " clip-rule="nonzero"/></clipPath></defs><g clip-path="url(#2fd1a3ddab)"><g clip-path="url(#28668debd5)"><path fill="#64ebb6" d="M 5.609375 4.863281 L 29.789062 4.863281 L 29.789062 26.089844 L 5.609375 26.089844 Z M 5.609375 4.863281 " fill-opacity="1" fill-rule="nonzero"/></g></g><g mask="url(#ca66e2edbc)"><g transform="matrix(1, 0, 0, 1, 8, 8)"><g clip-path="url(#1b01c166c3)"><g clip-path="url(#2899fec9ba)"><g clip-path="url(#b753dceb12)"><path fill="#1b9ce4" d="M 0.0820312 1.199219 L 19.320312 1.199219 L 19.320312 18.089844 L 0.0820312 18.089844 Z M 0.0820312 1.199219 " fill-opacity="1" fill-rule="nonzero"/></g></g></g></g></g><g clip-path="url(#f00e272199)"><path fill="#ffffff" d="M 15.28125 27.40625 L 15.28125 23.503906 C 15.28125 22.984375 15.703125 22.5625 16.222656 22.5625 L 19.425781 22.5625 C 19.945312 22.5625 20.367188 22.144531 20.367188 21.625 L 20.367188 17.800781 C 20.367188 17.28125 19.945312 16.859375 19.425781 16.859375 C 19.425781 16.859375 19.070312 16.859375 18.59375 16.859375 C 18.121094 16.859375 17.527344 16.859375 17.050781 16.859375 C 16.542969 16.777344 15.832031 16.777344 15.59375 16.539062 C 14.644531 15.113281 16.542969 11.550781 13.597656 11.675781 C 13.171875 11.671875 12.640625 11.671875 12.214844 11.671875 C 11.789062 11.671875 11.472656 11.671875 11.472656 11.671875 C 10.953125 11.671875 10.53125 12.09375 10.53125 12.613281 L 10.53125 15.917969 C 10.53125 16.179688 10.425781 16.414062 10.253906 16.582031 C 10.085938 16.753906 9.851562 16.859375 9.589844 16.863281 C 7.996094 17.488281 4.195312 16.0625 4.621094 18.796875 C 4.621094 19.355469 4.621094 20.066406 4.621094 20.632812 C 4.621094 21.199219 4.621094 21.625 4.621094 21.625 C 4.621094 22.144531 5.042969 22.5625 5.5625 22.5625 C 5.5625 22.5625 7.351562 22.5625 8.546875 22.5625 C 8.84375 22.5625 9.105469 22.5625 9.292969 22.5625 C 9.65625 22.476562 10.132812 22.710938 10.371094 22.949219 C 11.320312 24.851562 9.421875 29.125 12.90625 28.347656 C 13.144531 28.347656 13.382812 28.347656 13.597656 28.347656 C 14.023438 28.347656 14.339844 28.347656 14.339844 28.347656 C 14.859375 28.347656 15.28125 27.925781 15.28125 27.40625 Z M 15.28125 27.40625 " fill-opacity="1" fill-rule="nonzero"/></g><path fill="#ffffff" d="M 19.496094 20.820312 C 19.570312 21.054688 19.535156 21.316406 19.386719 21.511719 C 19.234375 21.71875 18.984375 21.8125 18.742188 21.863281 C 18.453125 21.929688 18.152344 21.949219 17.859375 21.96875 C 17.527344 21.996094 17.195312 22.007812 16.867188 22.011719 C 16.488281 22.015625 16.113281 22.003906 15.734375 21.976562 C 15.585938 21.96875 15.585938 22.199219 15.734375 22.210938 C 16.453125 22.257812 17.171875 22.257812 17.886719 22.199219 C 18.207031 22.175781 18.539062 22.152344 18.851562 22.078125 C 19.125 22.011719 19.390625 21.886719 19.566406 21.660156 C 19.761719 21.40625 19.820312 21.0625 19.722656 20.757812 C 19.675781 20.617188 19.449219 20.679688 19.496094 20.820312 Z M 19.496094 20.820312 " fill-opacity="1" fill-rule="nonzero"/><path fill="#ffffff" d="M 18.097656 21.355469 C 17.492188 21.441406 16.878906 21.464844 16.265625 21.429688 C 16.117188 21.417969 16.117188 21.652344 16.265625 21.660156 C 16.898438 21.699219 17.53125 21.671875 18.160156 21.578125 C 18.222656 21.570312 18.257812 21.492188 18.242188 21.433594 C 18.222656 21.367188 18.160156 21.34375 18.097656 21.355469 Z M 18.097656 21.355469 " fill-opacity="1" fill-rule="nonzero"/><path fill="#ffffff" d="M 11.027344 14.519531 C 10.910156 15.191406 11.089844 15.878906 10.949219 16.542969 C 10.890625 16.8125 10.785156 17.074219 10.585938 17.269531 C 10.371094 17.480469 10.074219 17.566406 9.785156 17.609375 C 9.390625 17.664062 8.984375 17.664062 8.585938 17.648438 C 8.4375 17.644531 8.4375 17.875 8.585938 17.882812 C 8.964844 17.898438 9.347656 17.890625 9.726562 17.847656 C 10.046875 17.808594 10.375 17.734375 10.636719 17.535156 C 11.140625 17.144531 11.242188 16.460938 11.234375 15.863281 C 11.226562 15.4375 11.179688 15.007812 11.253906 14.582031 C 11.277344 14.4375 11.054688 14.371094 11.027344 14.519531 Z M 11.027344 14.519531 " fill-opacity="1" fill-rule="nonzero"/><path fill="#ffffff" d="M 11.386719 17.148438 C 11.46875 17.609375 11.054688 17.96875 10.660156 18.089844 C 10.15625 18.246094 9.625 18.164062 9.109375 18.191406 C 8.960938 18.203125 8.957031 18.433594 9.109375 18.425781 C 9.6875 18.394531 10.292969 18.492188 10.84375 18.269531 C 11.320312 18.078125 11.707031 17.628906 11.613281 17.085938 C 11.585938 16.941406 11.363281 17.003906 11.386719 17.148438 Z M 11.386719 17.148438 " fill-opacity="1" fill-rule="nonzero"/></svg>